<?xml version="1.0" encoding="utf-8"?>
<!-- Generator: Adobe Illustrator 25.2.3, SVG Export Plug-In . SVG Version: 6.00 Build 0)  -->
<svg version="1.1" id="bold" xmlns="http://www.w3.org/2000/svg" xmlns:xlink="http://www.w3.org/1999/xlink" x="0px" y="0px"
	 viewBox="0 0 512 512" style="enable-background:new 0 0 512 512;" xml:space="preserve">
<style type="text/css">
	.st0{fill:#424242;}
	.st1{fill:#EC7E14;}
</style>
<circle class="st0" cx="224" cy="480" r="32"/>
<circle class="st0" cx="394.7" cy="480" r="32"/>
<path class="st1" d="M512,138.7c0,76.5-62.2,138.7-138.7,138.7s-138.7-62.2-138.7-138.7S296.9,0,373.3,0S512,62.2,512,138.7z
	 M448,138.7c0-11.8-9.6-21.3-21.3-21.3h-32v-32c0-11.8-9.6-21.3-21.3-21.3S352,73.6,352,85.3v32h-32c-11.8,0-21.3,9.6-21.3,21.3
	S308.2,160,320,160h32v32c0,11.8,9.6,21.3,21.3,21.3s21.3-9.6,21.3-21.3v-32h32C438.4,160,448,150.4,448,138.7z"/>
<path class="st0" d="M192,138.7c0-3.6,0.3-7.1,0.5-10.7h-56.9l-8.1-38.5C121.9,62.6,97.9,43,70.4,42.9l-54.3-0.2c0,0,0,0-0.1,0
	c-8.8,0-16,7.1-16,15.9s7.1,16,15.9,16.1l54.3,0.2c12.5,0,23.4,9,26,21.2l10.8,51.2l38.6,183.4h-12.3c-26.5,0-48,21.5-48,48
	c0,26.5,21.5,48,48,48h320c8.8,0,16-7.2,16-16c0-8.8-7.2-16-16-16h-320c-8.8,0-16-7.2-16-16c0-8.8,7.2-16,16-16h32h0h288
	c7.6,0,14.1-5.3,15.7-12.7l14.2-67.3C452.7,306,414.6,320,373.3,320C273.3,320,192,238.7,192,138.7z"/>
</svg>
