<svg xmlns="http://www.w3.org/2000/svg" viewBox="0 0 2389.5 403.5"><defs><style>.cls-1{fill:#5f6061;}.cls-2{fill:#ea7d14;}.cls-3{fill:#e67d17;}.cls-4{fill:#fcfcfc;}.cls-5{fill:#e57d19;}.cls-6{fill:#686059;}.cls-7{fill:#64605d;}.cls-8{fill:#606162;}</style></defs><g id="Calque_2" data-name="Calque 2"><g id="Calque_1-2" data-name="Calque 1"><path class="cls-1" d="M.07.07q1193,0,2386-.07c2.82,0,3.45.63,3.45,3.44q-.12,198.32,0,396.62c0,2.81-.63,3.44-3.45,3.44q-1191.3-.11-2382.6,0c-2.82,0-3.45-.63-3.45-3.44Q.12,200.07.07.07ZM748.53,219h0l-2.88-3c-.55-5.48-3.56-9.45-7.9-12.49-4.1-2.86-8.56-2.65-11.1.59a23.53,23.53,0,0,0-5,12.67c-.55,6.24,1.78,11.42,5.81,16,2.5,2.86,2.42,3-1.27,4s-7.19,1.91-10.63,3.27c-9.83,3.9-19.64,8.09-27.67,15.09-4.81,4.19-8.67,9.49-12.77,14.45-1.79,2.16-2.85,2-3.88-.44-.27-6.6-3.56-12-7.1-17.22-.27-.4-1.06-.44-1.6-.64a5.38,5.38,0,0,0-.34,2c.92,4,1.82,8,3,11.93s2.61,7.92,3.93,11.87c.06,2.45.09,4.9.21,7.35.32,6.43.87,12.85,1,19.29.07,4.8.53,9.91-.85,14.36-4.66,15.08-17.61,20.89-31.07,25.1-11.12,3.48-22.85,4-34.46,3.14a54.82,54.82,0,0,1-14.87-3c-15.51-5.72-28.24-21.34-28.2-40.09,0-15.49,2.57-30.43,6.26-45.31,1.55-2.3,5.15-3.66,3.32-7.56-.25-.53.58-1.54.85-2.35a27.67,27.67,0,0,0,1.7-5.4A29.91,29.91,0,0,1,577,231c1.39,4.38-.18,7.95,1.59,11.69,1.93,4,4.26,6.94,8,8.62,2.38,1,5.25,1.82,7.47-.81,4.54-3,9.25-5.68,13.58-8.91a19.45,19.45,0,0,0,7.14-21.66c-1.76-5.82-6.63-8-11.71-9.9.07-.93.44-2.55.18-2.66a16.49,16.49,0,0,0-3.76-.74,13.31,13.31,0,0,1,5.77-2.22c5.57-.64,11.16-1.16,16.75-1.52a7.87,7.87,0,0,1,4.08,1c2.23,1.22,4.28,1.39,6.41,0,7.51,2.62,12,8.55,15.51,15.09,3.59,6.76,6.26,14,9.34,21a54.27,54.27,0,0,0,1.55,5.23,12.44,12.44,0,0,0,1.89,2.53,9.21,9.21,0,0,0,.46-2.88,40,40,0,0,0-1.31-4.85c0-.51-.06-1-.08-1.53l-1.32-5.62c-1.68-7.92-4-15.51-8.77-22.31-6.29-9-13.69-16.05-25.33-17.07-3.35-.3-2.33-2.95-1.59-4.54,2.39-5.12,6-8.85,12.19-9,2.49-.06,5,0,7.49.06,6.69.21,11.5-2.85,14.41-8.7a90.42,90.42,0,0,0,3.51-9.36,4.51,4.51,0,0,0-2.34-6,24.24,24.24,0,0,0-7.07-2c-5.67-.91-11.14-.89-15.63,3.69a4.56,4.56,0,0,1-3.81,1.07c-.83-.25-1.69-2.17-1.61-3.28.44-6.31-2.77-11-6.63-15.32-3.73-4.15-7.93-7.87-10.25-13.15a10,10,0,0,0-3.23-3.55c-3-2.24-4.57-2-7,1a38.41,38.41,0,0,0-8.57,20.3c-1.41,12.75,3.84,22.25,15.19,28.23,2.1,1.1,2.86,2.38,2.53,4.68-.64,4.43-1,8.89-1.67,13.32-.37,2.57-2,3.7-4.64,4-15.65,1.56-26.81,10.07-34.16,23.46-3.49,6.36-5.68,13.46-8.27,20.29-4.88,12.84-8.35,26.12-9.33,39.78a295.4,295.4,0,0,0-.22,34.83c.38,8.24,3.44,15.89,8.34,22.78,4,5.61,9.65,8.77,15.47,11.86l-5.27,2.95c-5.84.47-11.68,1.34-17.52,1.34-15.15,0-30.14,1.15-44.85,4.89-7,1.78-14,3.89-21.56,6,5.27,4.77,11.08,5.24,16.49,5.37,11.33.27,22.7-.26,34-.7,10.84-.42,21.67-1.1,32.49-1.78,14.07-.88,28.13-2.08,42.21-2.78,18.32-.91,36.67-1.36,55-2.21,15.58-.73,31.13-1.8,46.71-2.62,13.69-.73,27.4-1.25,41.1-2,5.84-.32,11.69-.81,17.5-1.53,9.37-1.16,18.68-2.87,28.08-3.81a180.08,180.08,0,0,0,34-6.31c3.53-1,6.92-2.56,10.38-3.86l-.27-1c-2-.73-3.9-1.9-5.92-2.11-10.28-1.09-20.56-2.36-30.88-2.71-7.94-.26-15.93.73-23.9,1.21-2,.12-4,.41-6,.58-7.82.68-15.65,1.38-23.48,2a9.14,9.14,0,0,1-2.68-.63,7.75,7.75,0,0,1,1.31-2.12c8.35-7,13.68-15.93,15.1-26.65,1-7.45,1.89-15.33.51-22.58-1.75-9.17-5.67-18-9-26.77-1.21-3.17-3.5-5.92-5.3-8.87L747,243.14c.79-3.74,4.48-5.36,8.57-4.21a24.32,24.32,0,0,0,7.19.61c2.17-.07,4.32-.83,6.5-1,2.59-.19,5.2-.1,7.8-.07,2,0,3-.86,3-2.9,6.39-5.7,9.65-13.37,12.93-21,.47-1.09-.4-3.7-1.44-4.37-11-7-21.22-8.7-32.64-.28-1.56.81-3.39,1.33-4.62,2.48A79.81,79.81,0,0,0,748.53,219Zm788.41-9.26.84-.39a17.13,17.13,0,0,1,1.47,2.26c3,6.43,6.19,12.75,8.7,19.35,3.74,9.85,7.21,19.82,10.32,29.88,2.75,8.9,5.47,17.88,4.68,27.45a40.37,40.37,0,0,0,.1,7.85c.61,5.35,3.89,8.84,9,9.53a27.22,27.22,0,0,0,7.1.07c7.49-.95,10.72-4.2,12.5-11.68a90.18,90.18,0,0,1,3.7-12.43c5-12.59,12.87-23.5,20.78-34.33,9.59-13.14,19.47-26.08,29.25-39.09.68-.91,1.5-1.71,2.25-2.56a51,51,0,0,1-.53,10.25c-.63,5.44-1.11,10.91-1.82,16.34-1.8,13.69-4,27.34-5.43,41.06-.67,6.13-1.46,12-4.12,17.66-2.21,4.71-.57,12.42,5.56,13.81,3.8.85,8,1.66,11.71.84,10-2.2,14.26-6.64,13.64-17.59a52.37,52.37,0,0,1-.12-8.58c1.51-13.87,3.2-27.72,4.84-41.57q.67-5.75,1.44-11.49c1.38-10.49,2.85-21,4.15-31.47,1.2-9.77,2.13-19.57,3.39-29.32.56-4.29,1.57-8.53,2.52-12.75,2-9.09-.75-14.53-9.28-17.05a21.41,21.41,0,0,0-7.42-.5c-7.54.51-12.56,5.61-13.39,12.93-.67,5.89-.8,11.95-4.29,17.2-5.12,7.73-9.73,15.84-15.28,23.24-8.18,10.9-17.26,21.12-25.47,32-7.38,9.8-14.1,20.11-21.13,30.19-.6.86-1.29,1.66-2.14,2.75a27.75,27.75,0,0,1-1.76-3.31c-2.11-6-3.92-12-6.28-17.89-6.77-16.78-13.87-33.42-20.61-50.21-4.56-11.37-10.19-22.47-9.38-35.35.11-1.73-1.38-4.09-2.84-5.29-5.94-4.89-15.63-4.49-21.43.6-3.92,3.44-5,8.18-5.59,13.05-.72,5.68-1.25,11.39-2,17.07-1.27,10-2.69,20-3.92,30-.74,6.06-1.13,12.15-1.9,18.2-1.75,13.71-3.78,27.37-5.43,41.09-1.32,11-2,21.95-5.43,32.65-1.68,5.3,2.13,13.26,9.42,13.4a53.73,53.73,0,0,0,10.08-.28c5.6-.95,10.93-3.94,11.19-11a94.22,94.22,0,0,0-.58-9.62,23.41,23.41,0,0,1-.22-4.41c1.61-12.59,3.37-25.17,5-37.76C1534.22,232.94,1535.55,221.34,1536.94,209.74Zm-242,130.47,0,.68c1.87-.1,3.74-.24,5.61-.31,25.09-.82,50.21-1.21,75.27-2.62,12.65-.71,25.21-3.2,37.79-5,1.12-.16,2.08-1.37,3.12-2.09-1-.82-1.77-2.09-2.85-2.37-9-2.34-18-5.19-27.2-6.58-32-4.82-64.27-4.61-96.49-3.65-27.2.81-54.39,2.46-81.55,4.28-25,1.68-50,3.9-75,6.24-22.88,2.13-45.7,4.77-68.56,7.13-25.33,2.61-50.59,5.71-75.46,11.39-12.42,2.84-24.66,6.31-35.8,12.77-.91.53-1.4,1.78-2.09,2.7.9.63,1.71,1.61,2.7,1.82a109.45,109.45,0,0,0,33.15,2.29c19.64-1.74,39.21-4.13,58.8-6.39,24.56-2.83,49.07-6.13,73.66-8.62,24.84-2.51,49.74-4.67,74.66-6.27C1228,343.42,1261.47,342,1294.89,340.21Zm483.57-131.9h6.37c.25,0,.5,0,.75,0,3.09,0,4.34,1.52,3.87,4.51-.31,2-.65,3.94-1,5.91-.87,5-1.56,5.38-6.48,6.23a161.68,161.68,0,0,0-17.49,3.69c-15.48,4.45-30.31,10.39-43.28,20.22-12,9.11-22.23,19.64-25.66,35-2.77,12.37,3.57,21.92,15.78,25,9.42,2.39,18.69.8,27.64-1.9a111.11,111.11,0,0,0,36.4-19,47.13,47.13,0,0,1,4.58-2.81c-.57,1.67-1.07,3.36-1.73,5-3.57,8.8.63,15.45,9.44,15.63a46.2,46.2,0,0,0,10.29-1.31,11.77,11.77,0,0,0,9.58-10.94c.52-6.67.52-13.39,1.21-20,1.45-14,3.15-28,4.86-42,.61-4.94,1.8-9.81,2.3-14.76.68-6.81,1.46-13.7-1.71-20.21-4.43-9.12-12.83-11.64-21.75-11.63s-17.57,1.5-26.34,2.51a82.18,82.18,0,0,0-30.91,10.22c-3,1.69-6,3.64-9.19,4.78-5.74,2-9.56,5.68-11.18,11.49-1.5,5.38,2.41,12.89,7.49,13.8,7.54,1.35,15.19-.25,19.92-7.74a9.64,9.64,0,0,1,3.64-3.48A77,77,0,0,1,1778.46,208.31Zm231.17,99.11a16.78,16.78,0,0,0,14.56-7.58,11.86,11.86,0,0,0-2.56-16.58,14.19,14.19,0,0,1-3-3.25c-8.89-13-17.64-26.16-26.68-39.09-1.7-2.42-1.18-3.59.72-5.15,5.09-4.16,10-8.54,15.22-12.57,7.31-5.68,13.55-12.62,22.16-16.79,6.89-3.34,7.68-11.8,2.89-17.87-3.58-4.53-8.29-4.48-13.21-4.12a10.75,10.75,0,0,0-9.75,6.9,7.58,7.58,0,0,1-1.86,2.72q-16.91,14.63-33.91,29.13a14.59,14.59,0,0,1-2.83,1.48,11.23,11.23,0,0,1-.62-3.09c.57-6.33,1.16-12.66,1.94-19,1.37-11.12,2.73-22.24,4.39-33.33,1-6.85,2.55-13.63,3.91-20.44,1.42-7.11.22-15.52-10.48-15.71a47.06,47.06,0,0,0-6.71.33c-7.62.95-12.43,6.66-12.3,14.3a142.82,142.82,0,0,1-.15,15.21c-.82,9.18-2.07,18.32-3.21,27.47-1.37,11.1-2.83,22.19-4.22,33.28-.62,4.94-1.16,9.89-1.77,14.83-1.42,11.48-2.79,23-4.31,34.42-.6,4.53-.71,9.37-2.49,13.44-4.58,10.43-.92,18.55,10.29,20,10.91,1.4,19.76-6.73,17.35-18.17a12.51,12.51,0,0,1-.51-4c1.06-8,2.2-16,3.49-24a34.63,34.63,0,0,1,2-5.75c1.47,1.44,3.25,2.68,4.37,4.35,4.94,7.44,9.7,15,14.5,22.51,4.13,6.48,8.61,12.78,12.2,19.54C2001.48,305.41,2004.64,307.56,2009.63,307.42Zm68.06,2.68c5.32-.49,10.79-.39,15.95-1.58,19.58-4.51,35.2-15.78,48.87-30,5-5.19,5.11-11.51,1.19-16.23-3.77-4.55-8.88-5-14-4-5.44,1.08-9.88,3.93-11.7,9.75a10.53,10.53,0,0,1-2.44,4.45c-8.76,8.2-18.9,13.75-31.08,14.58-9,.62-14.81-1.95-14.53-12.62.08-3.32,1.11-6.62,1.26-9.94.16-3.78,2.13-5.65,5.52-6.44,6.53-1.53,13.09-3,19.6-4.54,12.42-3,24.91-5.77,37.18-9.3,7.72-2.23,14.95-6.3,18.84-13.69,7.93-15.05.51-34.48-18.55-40-7.51-2.18-14.93-1.56-22.56-.35-15.39,2.42-28,10-38.84,20.53A97.83,97.83,0,0,0,2048,249.07c-4.28,12.32-7.08,24.93-3.52,38.07,2.29,8.43,7,14.94,14.7,19.25C2065,309.64,2071.24,310,2077.69,310.1Zm-901.26-85.76-.36-5.22c-1.6-24-19.33-38.84-43.27-36.53-14,1.35-26.64,6.44-38.08,14.36-23.68,16.39-36.65,39.32-40.07,67.68-2.4,20,9.1,36.43,28.63,40.9,11.49,2.62,23,1.09,33.83-3.15,17.55-6.85,31.23-18.95,42.65-33.69C1169.87,255.66,1176.52,241.26,1176.43,224.34ZM2198,309.28c8.49.32,15.81-3.22,23-7a174.69,174.69,0,0,0,34.78-24.82A188.92,188.92,0,0,0,2269.58,263c4.57-5.08,1.6-14-2.13-16.4-6.38-4.07-17.69-3-21.55,6.16a23.63,23.63,0,0,1-4.65,6.93,63,63,0,0,1-9.45,8.36c-5.7,3.95-11.7,7.45-17.62,11.08-2.93,1.8-3.71.33-3.37-2.44.9-7.41,1.89-14.8,2.77-22.21,1.62-13.58,3.24-27.17,4.76-40.77.27-2.44,1.36-3.45,3.73-3.73,11-1.34,21.95-2.81,32.93-4.17,6.78-.84,12.42-8.46,11.35-15.43-1.12-7.24-7.15-10.83-15-9.16-3.89.82-7.85,1.27-11.78,1.9-4.54.72-9.13,1.26-13.6,2.27-2.72.61-3.66-.29-3.26-2.7.69-4.14,1.55-8.25,2.52-12.32,1.81-7.66.66-12.16-6.24-13.84a21.4,21.4,0,0,0-9.65-.1c-9.19,2.17-11.91,4.36-12.4,14-.29,5.6-.9,11.19-1.69,16.74-.18,1.24-1.57,3.07-2.66,3.28a96.54,96.54,0,0,1-13.67,1.6c-7.18.29-13.74,4.93-15.54,11.8-2,7.68,4,15.75,14,14.12,3.16-.51,6.23-1.59,9.39-2.1,4.7-.76,5.2.08,4.46,4.85-1.5,9.58-2.83,19.18-4.06,28.8s-2.23,19.3-3.38,28.95c-.51,4.32-1.05,8.64-1.75,12.93-1.36,8.29,1.23,15.05,9,17.08A49.44,49.44,0,0,0,2198,309.28Zm-854.22-2.56c31-2.55,51.32-19.6,66.74-43.94,4-6.39.87-13.52-3.12-16.5-4.24-3.16-13.52-2.41-17.34,1.85-2.41,2.68-3.72,6.31-5.83,9.28A68.26,68.26,0,0,1,1360,278.74a22.35,22.35,0,0,1-17.07,1.71c-3.68-1.06-6.34-3.47-6.88-7.17a49.18,49.18,0,0,1-.55-13.36c2.55-19.34,13.4-33.67,28.15-45.64,5.24-4.26,11.07-6,17.62-6.18,3.15-.11,5.08,1.1,6.45,4,3.55,7.47,6.54,9.1,14.51,7.6,6.28-1.18,11.69-3.83,13.6-10.7,2-7-.24-12.8-5.48-17.53a29,29,0,0,0-13.47-7c-13.6-3-26.5-.68-39,4.92-10.24,4.56-17.3,12.86-25,20.49-16.27,16.06-23.15,36.09-25.08,58.14-1.54,17.5,8,32.38,23.22,36.73C1335.33,306,1340,306.17,1343.78,306.72ZM971,307c1.62-.16,4.25-.29,6.83-.69,17-2.65,30.6-11.47,42.53-23.4,6-6,11.89-12.15,15.49-20,2.77-6,1.34-12.75-3.13-15.89-3.78-2.66-13.68-3.21-17.65,1.87-2.24,2.88-3.76,6.31-5.86,9.31a65.29,65.29,0,0,1-24.89,21.62,22.58,22.58,0,0,1-13.13,2c-6.56-.84-9.41-3.66-10.55-10.22-1.39-8,.45-15.6,2.83-23.13,4.45-14.07,14.32-24,25.12-33.31,5.24-4.52,11.16-6.25,17.89-6.33,3.16,0,5,1,6.32,4,3,6.93,5.69,8.53,13.12,7.63,6.42-.77,12.2-2.92,14.67-9.81s1-13.41-5-18.19a41.85,41.85,0,0,0-12.95-7.08c-8.88-2.84-18-1.79-27,.21-13.66,3-24.06,11.06-34,20.7-17.82,17.34-27,38.24-28.84,62.69C931,291.9,946.91,308.13,971,307ZM1226,309.37a66.51,66.51,0,0,0,32.43-9.85A102,102,0,0,0,1289.37,270c2.38-3.49,4.78-7.19,4.13-11.74s-2.37-8.6-7.21-10c-5.38-1.59-10.89-1.57-15,2.82-2.45,2.62-3.74,6.29-5.84,9.3a68.31,68.31,0,0,1-21.81,20.2c-6,3.47-12.23,4.83-19,2.91-3.95-1.12-6.88-3.49-7.33-7.61-.51-4.78-1-9.75-.3-14.46,2.83-18.86,13.72-32.75,28.17-44.39,5.27-4.25,11.17-5.74,17.71-5.93,3.07-.09,4.8,1.16,6.05,3.9,3.33,7.34,6.44,9.13,14.12,7.72,6.39-1.17,11.94-3.78,14-10.8,2.06-7.19,0-13.3-5.78-17.64a40.31,40.31,0,0,0-12.79-6.63c-10.76-3.09-21.54-1.56-32,1.83a57.83,57.83,0,0,0-24.25,15c-10,10.34-20.67,20.28-25.46,34.28a161.75,161.75,0,0,0-7.44,28.85C1186.45,286.77,1196.17,309.51,1226,309.37ZM464.37,238.51c.62-6.43,1.12-12.89,1.88-19.3a116.31,116.31,0,0,1,10.84-37.05c12-24.82,30.18-43.88,53.92-57.67A145.35,145.35,0,0,1,585.75,106a136,136,0,0,1,49,2.45,132,132,0,0,1,33.57,13.05,122.84,122.84,0,0,1,46.56,45.17c2.24,3.71,5.29,5.77,8.8,7.62a4.6,4.6,0,0,0,1.68.13,6.71,6.71,0,0,0-.19-1.75,11.35,11.35,0,0,0-1.07-2,164.41,164.41,0,0,0-45.83-49.37,139,139,0,0,0-61.66-24.78,150.39,150.39,0,0,0-47.66.74,141.1,141.1,0,0,0-32.33,9.92,138.62,138.62,0,0,0-55.51,44Q450.49,191.93,452.84,243a142.89,142.89,0,0,0,39.63,92.23c4.6,4.86,9.64,9.32,14.58,13.85.79.72,2.12.84,3.2,1.24-.41-1.13-.76-2.29-1.27-3.37a8.09,8.09,0,0,0-1.24-1.4c-5.61-6.78-11.87-13.13-16.7-20.42C473.68,298.93,464.9,270,464.37,238.51Zm1385,67.29a46.32,46.32,0,0,0,4.86,0c8.63-.94,14.84-7.78,13.52-15.59a42.83,42.83,0,0,1-.33-14c.61-3.93,1-7.89,1.53-11.84,1-8,2-16,3.2-24a6.41,6.41,0,0,1,2.23-3.74c8.43-6.52,17-12.89,25.48-19.3,1.2-.9,2.13-.9,2.18.86.19,6.28,4.08,9.16,9.57,10.76,6.2,1.81,14.72-2,16.26-8.13,1.63-6.57,2.46-13.32,1.17-20.25-2.06-11.09-7.28-13.52-15.2-13.2-6.91.27-12.43,4.07-18.12,7.19-5.08,2.79-9.68,6.45-14.55,9.64a16.69,16.69,0,0,1-3.27,1.27c0-1-.14-2.09-.13-3.14,0-2.23.33-4.49.15-6.71-.32-3.82-3.74-7.6-7.3-7.91a38.89,38.89,0,0,0-9,.11c-6.24.9-11.52,7-12.07,13q-1.53,17.1-3.29,34.16c-.44,4.33-1.09,8.63-1.66,12.94-1.39,10.59-2.73,21.18-4.25,31.76a24.72,24.72,0,0,1-2.11,7.78C1833,297.7,1837.82,306,1849.4,305.8Zm-406.35.78c.62,0,1.25.06,1.87,0,12.13-1.17,18.43-10.29,15.76-20.19a8,8,0,0,1-.09-2.93c2.39-20.31,4.74-40.63,7.27-60.92.68-5.46.94-10.9,3.64-16.16,3.35-6.53-1.1-15.42-7.74-17.38-12.28-3.61-24.29,8-21.34,20.53a15.78,15.78,0,0,1,.28,5.48c-2.11,16.45-4.16,32.9-6.56,49.3-1.27,8.69-1.63,17.47-5,25.92C1427.67,299.07,1433.81,306.83,1443.05,306.58Zm4.35-140.65c-.27,8.21,3.92,13.13,11.07,14a14.89,14.89,0,0,0,12.64-4.32c7.38-7.19,9.71-16.4,9.89-26.21.1-5.2-3.1-8.79-7.81-10.27a17.24,17.24,0,0,0-20.16,7.48C1449.24,152.8,1448.08,159.81,1447.4,165.93Z"/><path class="cls-2" d="M1536.94,209.74c-1.39,11.6-2.72,23.2-4.2,34.79-1.6,12.59-3.36,25.17-5,37.76a23.41,23.41,0,0,0,.22,4.41,94.22,94.22,0,0,1,.58,9.62c-.26,7.06-5.59,10.05-11.19,11a53.73,53.73,0,0,1-10.08.28c-7.29-.14-11.1-8.1-9.42-13.4,3.38-10.7,4.11-21.68,5.43-32.65,1.65-13.72,3.68-27.38,5.43-41.09.77-6.05,1.16-12.14,1.9-18.2,1.23-10,2.65-20,3.92-30,.72-5.68,1.25-11.39,2-17.07.61-4.87,1.67-9.61,5.59-13.05,5.8-5.09,15.49-5.49,21.43-.6,1.46,1.2,3,3.56,2.84,5.29-.81,12.88,4.82,24,9.38,35.35,6.74,16.79,13.84,33.43,20.61,50.21,2.36,5.85,4.17,11.93,6.28,17.89a27.75,27.75,0,0,0,1.76,3.31c.85-1.09,1.54-1.89,2.14-2.75,7-10.08,13.75-20.39,21.13-30.19,8.21-10.89,17.29-21.11,25.47-32,5.55-7.4,10.16-15.51,15.28-23.24,3.49-5.25,3.62-11.31,4.29-17.2.83-7.32,5.85-12.42,13.39-12.93a21.41,21.41,0,0,1,7.42.5c8.53,2.52,11.33,8,9.28,17.05-1,4.22-2,8.46-2.52,12.75-1.26,9.75-2.19,19.55-3.39,29.32-1.3,10.5-2.77,21-4.15,31.47q-.77,5.75-1.44,11.49c-1.64,13.85-3.33,27.7-4.84,41.57a52.37,52.37,0,0,0,.12,8.58c.62,11-3.65,15.39-13.64,17.59-3.68.82-7.91,0-11.71-.84-6.13-1.39-7.77-9.1-5.56-13.81,2.66-5.68,3.45-11.53,4.12-17.66,1.48-13.72,3.63-27.37,5.43-41.06.71-5.43,1.19-10.9,1.82-16.34a51,51,0,0,0,.53-10.25c-.75.85-1.57,1.65-2.25,2.56-9.78,13-19.66,25.95-29.25,39.09-7.91,10.83-15.78,21.74-20.78,34.33a90.18,90.18,0,0,0-3.7,12.43c-1.78,7.48-5,10.73-12.5,11.68a27.22,27.22,0,0,1-7.1-.07c-5.07-.69-8.35-4.18-9-9.53a40.37,40.37,0,0,1-.1-7.85c.79-9.57-1.93-18.55-4.68-27.45-3.11-10.06-6.58-20-10.32-29.88-2.51-6.6-5.75-12.92-8.7-19.35a17.13,17.13,0,0,0-1.47-2.26Z"/><path class="cls-3" d="M671.26,269.19c1,2.47,2.09,2.6,3.88.44,4.1-5,8-10.26,12.77-14.45,8-7,17.84-11.19,27.67-15.09,3.44-1.36,7.07-2.23,10.63-3.27s3.77-1.19,1.27-4c-4-4.59-6.36-9.77-5.81-16a23.53,23.53,0,0,1,5-12.67c2.54-3.24,7-3.45,11.1-.59,4.34,3,7.35,7,7.9,12.49l-3.24,10.55c-1,.88-1.92,2.07-2.87,0,.2-4.66.1-9.26-3.8-12.64a17.46,17.46,0,0,0-3.38-1.85,22.64,22.64,0,0,0-1.68,3.65c-1.76,6.51,1.91,11.09,5.81,15.52.21.24,1.11-.13,1.69-.22,1.82-1.08,3.15-1,2.8,1.54a59.54,59.54,0,0,1-1.4,6l0,0c-.37.29-1,.56-1.08.89-.35,3.58-2.78,3.59-5.54,3.64-1.8,0-3.58.82-5.38,1.27l-8.26,2.39c-5.64,2.4-11.44,4.48-16.84,7.31-3,1.59-5.4,4.41-8.06,6.68v.06l-1.33.3-8.88,10.43c-7.93,12.52-7.88,25.94-3.78,39.49,3,9.82,10,16.62,18.66,21.85,10.94,6.59,22.5,8.48,34.7,4.66,16.53-5.18,27.13-19.36,28.39-36.74,1.31-18.16-4.88-34.44-12.08-50.52,0-1.67.34-2.76,2.25-1.47,1.2.81,2.38,1.63,3.57,2.45,1.8,2.95,4.09,5.7,5.3,8.87,3.36,8.81,7.28,17.6,9,26.77,1.38,7.25.48,15.13-.51,22.58-1.42,10.72-6.75,19.63-15.1,26.65a7.75,7.75,0,0,0-1.31,2.12,9.14,9.14,0,0,0,2.68.63c7.83-.6,15.66-1.3,23.48-2,2-.17,4-.46,6-.58,8-.48,16-1.47,23.9-1.21,10.32.35,20.6,1.62,30.88,2.71,2,.21,3.95,1.38,5.92,2.11l.27,1c-3.46,1.3-6.85,2.81-10.38,3.86a180.08,180.08,0,0,1-34,6.31c-9.4.94-18.71,2.65-28.08,3.81-5.81.72-11.66,1.21-17.5,1.53-13.7.74-27.41,1.26-41.1,2-15.58.82-31.13,1.89-46.71,2.62-18.33.85-36.68,1.3-55,2.21-14.08.7-28.14,1.9-42.21,2.78-10.82.68-21.65,1.36-32.49,1.78-11.34.44-22.71,1-34,.7-5.41-.13-11.22-.6-16.49-5.37,7.6-2.14,14.54-4.25,21.56-6,14.71-3.74,29.7-4.9,44.85-4.89,5.84,0,11.68-.87,17.52-1.34h13c0-.31,0-.63,0-.94l-7.74-2c-5.82-3.09-11.48-6.25-15.47-11.86-4.9-6.89-8-14.54-8.34-22.78a295.4,295.4,0,0,1,.22-34.83c1-13.66,4.45-26.94,9.33-39.78,2.59-6.83,4.78-13.93,8.27-20.29,7.35-13.39,18.51-21.9,34.16-23.46,2.65-.27,4.27-1.4,4.64-4,.63-4.43,1-8.89,1.67-13.32.33-2.3-.43-3.58-2.53-4.68-11.35-6-16.6-15.48-15.19-28.23a38.41,38.41,0,0,1,8.57-20.3c2.42-3,4-3.2,7-1a10,10,0,0,1,3.23,3.55c2.32,5.28,6.52,9,10.25,13.15,3.86,4.31,7.07,9,6.63,15.32-.08,1.11.78,3,1.61,3.28a4.56,4.56,0,0,0,3.81-1.07c4.49-4.58,10-4.6,15.63-3.69a24.24,24.24,0,0,1,7.07,2,4.51,4.51,0,0,1,2.34,6,90.42,90.42,0,0,1-3.51,9.36c-2.91,5.85-7.72,8.91-14.41,8.7-2.5-.08-5-.12-7.49-.06-6.14.15-9.8,3.88-12.19,9-.74,1.59-1.76,4.24,1.59,4.54,11.64,1,19,8,25.33,17.07,4.73,6.8,7.09,14.39,8.77,22.31l1.32,5.62c0,.51,0,1,.08,1.53l-2.59,0c-3.08-7-5.75-14.27-9.34-21-3.47-6.54-8-12.47-15.51-15.09-4.4-3-9.28-3.12-14.3-2.44a26.71,26.71,0,0,1-4.06.46c-13.63-.23-24.29,5.51-31.9,16.57a71.2,71.2,0,0,0-8.36,15.68C571,241.88,569.31,250,567.11,258c-3.69,14.88-6.23,29.82-6.26,45.31,0,18.75,12.69,34.37,28.2,40.09a54.82,54.82,0,0,0,14.87,3c11.61.85,23.34.34,34.46-3.14,13.46-4.21,26.41-10,31.07-25.1,1.38-4.45.92-9.56.85-14.36-.1-6.44-.65-12.86-1-19.29-.12-2.45-.15-4.9-.21-7.35q-1.47-8.37-2.93-16.74l1.11-.33ZM621.1,172.66c2.1-3.73,2.82-6.8,0-10.14a7.54,7.54,0,0,1-1.09-5.64c1.11-5.58-1.16-9.55-4.94-13.24-2.19-2.13-4-4.69-6-7-.43-.51-.91-1-1.37-1.47-.5.51-1.24.94-1.47,1.56-1.91,5.05-3,10.19-2.18,15.67.93,6.28,4.21,10.94,9.81,13.51C617.2,167.38,620.1,168.78,621.1,172.66Zm77.59,170.59.23-1c-8.84-2.64-15-8.47-20-15.89-2.1-3.15-2.38-3.1-4.14.37A37.45,37.45,0,0,1,660,342.48c-1.21.7-2.44,1.36-3.67,2l.23,1ZM639.93,172.51c6.68.06,9.25-1.81,10.49-7.4a2.21,2.21,0,0,0-.91-1.9,9.77,9.77,0,0,0-13.64,6.26c-.51,1.67-.15,2.71,1.7,2.89C638.57,172.46,639.57,172.49,639.93,172.51Z"/><path class="cls-4" d="M1294.89,340.21c-33.42,1.75-66.86,3.21-100.25,5.36-24.92,1.6-49.82,3.76-74.66,6.27-24.59,2.49-49.1,5.79-73.66,8.62-19.59,2.26-39.16,4.65-58.8,6.39a109.45,109.45,0,0,1-33.15-2.29c-1-.21-1.8-1.19-2.7-1.82.69-.92,1.18-2.17,2.09-2.7,11.14-6.46,23.38-9.93,35.8-12.77,24.87-5.68,50.13-8.78,75.46-11.39,22.86-2.36,45.68-5,68.56-7.13,25-2.34,50-4.56,75-6.24,27.16-1.82,54.35-3.47,81.55-4.28,32.22-1,64.5-1.17,96.49,3.65,9.19,1.39,18.17,4.24,27.2,6.58,1.08.28,1.9,1.55,2.85,2.37-1,.72-2,1.93-3.12,2.09-12.58,1.84-25.14,4.33-37.79,5-25.06,1.41-50.18,1.8-75.27,2.62-1.87.07-3.74.21-5.61.31Z"/><path class="cls-2" d="M1778.46,208.31a77,77,0,0,0-32.59,8.18,9.64,9.64,0,0,0-3.64,3.48c-4.73,7.49-12.38,9.09-19.92,7.74-5.08-.91-9-8.42-7.49-13.8,1.62-5.81,5.44-9.46,11.18-11.49,3.23-1.14,6.18-3.09,9.19-4.78a82.18,82.18,0,0,1,30.91-10.22c8.77-1,17.56-2.5,26.34-2.51s17.32,2.51,21.75,11.63c3.17,6.51,2.39,13.4,1.71,20.21-.5,4.95-1.69,9.82-2.3,14.76-1.71,14-3.41,27.95-4.86,42-.69,6.65-.69,13.37-1.21,20a11.77,11.77,0,0,1-9.58,10.94,46.2,46.2,0,0,1-10.29,1.31c-8.81-.18-13-6.83-9.44-15.63.66-1.63,1.16-3.32,1.73-5a47.13,47.13,0,0,0-4.58,2.81,111.11,111.11,0,0,1-36.4,19c-9,2.7-18.22,4.29-27.64,1.9-12.21-3.11-18.55-12.66-15.78-25,3.43-15.34,13.64-25.87,25.66-35,13-9.83,27.8-15.77,43.28-20.22A161.68,161.68,0,0,1,1782,225c4.92-.85,5.61-1.26,6.48-6.23.34-2,.68-3.94,1-5.91.47-3-.78-4.54-3.87-4.51-.25,0-.5,0-.75,0Zm7.3,40.62-.93-.32c.62-2.59-.32-3.5-2.73-2.81-5.49,1.55-11.06,2.85-16.45,4.7-13.39,4.6-25.82,11-35.72,21.39a39.34,39.34,0,0,0-6,8c-.83,1.52-1.09,4.28-.22,5.54s3.56,1.79,5.23,1.48a73.43,73.43,0,0,0,12.87-3.54c14.92-5.72,28.25-14,38.83-26.13C1782.72,254.81,1784.06,251.72,1785.76,248.93Z"/><path class="cls-2" d="M2009.63,307.42c-5,.14-8.15-2-10.58-6.6-3.59-6.76-8.07-13.06-12.2-19.54-4.8-7.53-9.56-15.07-14.5-22.51-1.12-1.67-2.9-2.91-4.37-4.35a34.63,34.63,0,0,0-2,5.75c-1.29,8-2.43,16-3.49,24a12.51,12.51,0,0,0,.51,4c2.41,11.44-6.44,19.57-17.35,18.17-11.21-1.45-14.87-9.57-10.29-20,1.78-4.07,1.89-8.91,2.49-13.44,1.52-11.46,2.89-22.94,4.31-34.42.61-4.94,1.15-9.89,1.77-14.83,1.39-11.09,2.85-22.18,4.22-33.28,1.14-9.15,2.39-18.29,3.21-27.47a142.82,142.82,0,0,0,.15-15.21c-.13-7.64,4.68-13.35,12.3-14.3a47.06,47.06,0,0,1,6.71-.33c10.7.19,11.9,8.6,10.48,15.71-1.36,6.81-2.89,13.59-3.91,20.44-1.66,11.09-3,22.21-4.39,33.33-.78,6.31-1.37,12.64-1.94,19a11.23,11.23,0,0,0,.62,3.09,14.59,14.59,0,0,0,2.83-1.48q17-14.5,33.91-29.13a7.58,7.58,0,0,0,1.86-2.72,10.75,10.75,0,0,1,9.75-6.9c4.92-.36,9.63-.41,13.21,4.12,4.79,6.07,4,14.53-2.89,17.87-8.61,4.17-14.85,11.11-22.16,16.79-5.19,4-10.13,8.41-15.22,12.57-1.9,1.56-2.42,2.73-.72,5.15,9,12.93,17.79,26.06,26.68,39.09a14.19,14.19,0,0,0,3,3.25,11.86,11.86,0,0,1,2.56,16.58A16.78,16.78,0,0,1,2009.63,307.42Z"/><path class="cls-2" d="M2077.69,310.1c-6.45-.1-12.72-.46-18.52-3.71-7.69-4.31-12.41-10.82-14.7-19.25-3.56-13.14-.76-25.75,3.52-38.07a97.83,97.83,0,0,1,24.43-38.31c10.88-10.58,23.45-18.11,38.84-20.53,7.63-1.21,15-1.83,22.56.35,19.06,5.55,26.48,25,18.55,40-3.89,7.39-11.12,11.46-18.84,13.69-12.27,3.53-24.76,6.28-37.18,9.3-6.51,1.58-13.07,3-19.6,4.54-3.39.79-5.36,2.66-5.52,6.44-.15,3.32-1.18,6.62-1.26,9.94-.28,10.67,5.56,13.24,14.53,12.62,12.18-.83,22.32-6.38,31.08-14.58a10.53,10.53,0,0,0,2.44-4.45c1.82-5.82,6.26-8.67,11.7-9.75,5.1-1,10.21-.59,14,4,3.92,4.72,3.82,11-1.19,16.23-13.67,14.19-29.29,25.46-48.87,30C2088.48,309.71,2083,309.61,2077.69,310.1Zm6.37-75.84c1.83-.24,3.67-.38,5.46-.74,4-.81,8-1.63,12-2.64,7.35-1.85,14.7-3.73,22-5.83,2.82-.82,5.27-2.36,5-6-.27-3.11-2.33-5.51-5.7-6.54-5.46-1.67-10.74-.25-15.75,1.48C2096.85,217.44,2089.69,224.77,2084.06,234.26Z"/><path class="cls-4" d="M1176.43,224.34c.09,16.92-6.56,31.32-16.67,44.35-11.42,14.74-25.1,26.84-42.65,33.69-10.84,4.24-22.34,5.77-33.83,3.15-19.53-4.47-31-20.94-28.63-40.9,3.42-28.36,16.39-51.29,40.07-67.68,11.44-7.92,24-13,38.08-14.36,23.94-2.31,41.67,12.53,43.27,36.53Zm-27.29,1.8c-.06-1.37-.07-2.75-.21-4.11-1-9.65-6.59-14.73-16.25-14.05a36.18,36.18,0,0,0-12.65,2.86c-23.45,11-36.53,29.62-38.19,55.48-.64,9.95,3.32,14.59,11.5,15.46s16.57.1,23.2-5.2a165.27,165.27,0,0,0,20.67-19.34A46.61,46.61,0,0,0,1149.14,226.14Z"/><path class="cls-2" d="M2198,309.28a49.44,49.44,0,0,1-7-.83c-7.76-2-10.35-8.79-9-17.08.7-4.29,1.24-8.61,1.75-12.93,1.15-9.65,2.15-19.32,3.38-28.95s2.56-19.22,4.06-28.8c.74-4.77.24-5.61-4.46-4.85-3.16.51-6.23,1.59-9.39,2.1-10,1.63-16-6.44-14-14.12,1.8-6.87,8.36-11.51,15.54-11.8a96.54,96.54,0,0,0,13.67-1.6c1.09-.21,2.48-2,2.66-3.28.79-5.55,1.4-11.14,1.69-16.74.49-9.59,3.21-11.78,12.4-14a21.4,21.4,0,0,1,9.65.1c6.9,1.68,8.05,6.18,6.24,13.84-1,4.07-1.83,8.18-2.52,12.32-.4,2.41.54,3.31,3.26,2.7,4.47-1,9.06-1.55,13.6-2.27,3.93-.63,7.89-1.08,11.78-1.9,7.88-1.67,13.91,1.92,15,9.16,1.07,7-4.57,14.59-11.35,15.43-11,1.36-21.94,2.83-32.93,4.17-2.37.28-3.46,1.29-3.73,3.73-1.52,13.6-3.14,27.19-4.76,40.77-.88,7.41-1.87,14.8-2.77,22.21-.34,2.77.44,4.24,3.37,2.44,5.92-3.63,11.92-7.13,17.62-11.08a63,63,0,0,0,9.45-8.36,23.63,23.63,0,0,0,4.65-6.93c3.86-9.13,15.17-10.23,21.55-6.16,3.73,2.37,6.7,11.32,2.13,16.4a188.92,188.92,0,0,1-13.84,14.44A174.69,174.69,0,0,1,2221,302.28C2213.81,306.06,2206.49,309.6,2198,309.28Z"/><path class="cls-4" d="M1343.78,306.72c-3.76-.55-8.45-.73-12.83-2-15.19-4.35-24.76-19.23-23.22-36.73,1.93-22,8.81-42.08,25.08-58.14,7.73-7.63,14.79-15.93,25-20.49,12.53-5.6,25.43-7.88,39-4.92a29,29,0,0,1,13.47,7c5.24,4.73,7.44,10.51,5.48,17.53-1.91,6.87-7.32,9.52-13.6,10.7-8,1.5-11-.13-14.51-7.6-1.37-2.87-3.3-4.08-6.45-4-6.55.22-12.38,1.92-17.62,6.18-14.75,12-25.6,26.3-28.15,45.64a49.18,49.18,0,0,0,.55,13.36c.54,3.7,3.2,6.11,6.88,7.17a22.35,22.35,0,0,0,17.07-1.71,68.26,68.26,0,0,0,24.24-21.33c2.11-3,3.42-6.6,5.83-9.28,3.82-4.26,13.1-5,17.34-1.85,4,3,7.16,10.11,3.12,16.5C1395.1,287.12,1374.76,304.17,1343.78,306.72Z"/><path class="cls-4" d="M971,307c-24.05,1.12-39.93-15.11-38.18-38,1.86-24.45,11-45.35,28.84-62.69,9.91-9.64,20.31-17.66,34-20.7,9-2,18.14-3.05,27-.21a41.85,41.85,0,0,1,12.95,7.08c6,4.78,7.41,11.44,5,18.19s-8.25,9-14.67,9.81c-7.43.9-10.1-.7-13.12-7.63-1.31-3-3.16-4-6.32-4-6.73.08-12.65,1.81-17.89,6.33-10.8,9.32-20.67,19.24-25.12,33.31-2.38,7.53-4.22,15.14-2.83,23.13,1.14,6.56,4,9.38,10.55,10.22a22.58,22.58,0,0,0,13.13-2,65.29,65.29,0,0,0,24.89-21.62c2.1-3,3.62-6.43,5.86-9.31,4-5.08,13.87-4.53,17.65-1.87,4.47,3.14,5.9,9.87,3.13,15.89-3.6,7.84-9.47,14-15.49,20-11.93,11.93-25.53,20.75-42.53,23.4C975.21,306.72,972.58,306.85,971,307Z"/><path class="cls-4" d="M1226,309.37c-29.86.14-39.58-22.6-36.8-41.79a161.75,161.75,0,0,1,7.44-28.85c4.79-14,15.48-23.94,25.46-34.28a57.83,57.83,0,0,1,24.25-15c10.5-3.39,21.28-4.92,32-1.83a40.31,40.31,0,0,1,12.79,6.63c5.73,4.34,7.84,10.45,5.78,17.64-2,7-7.56,9.63-14,10.8-7.68,1.41-10.79-.38-14.12-7.72-1.25-2.74-3-4-6.05-3.9-6.54.19-12.44,1.68-17.71,5.93-14.45,11.64-25.34,25.53-28.17,44.39-.71,4.71-.21,9.68.3,14.46.45,4.12,3.38,6.49,7.33,7.61,6.8,1.92,13.05.56,19-2.91a68.31,68.31,0,0,0,21.81-20.2c2.1-3,3.39-6.68,5.84-9.3,4.1-4.39,9.61-4.41,15-2.82,4.84,1.42,6.56,5.5,7.21,10s-1.75,8.25-4.13,11.74a102,102,0,0,1-30.91,29.55A66.51,66.51,0,0,1,1226,309.37Z"/><path class="cls-5" d="M464.37,238.51c.53,31.51,9.31,60.42,26.67,86.57,4.83,7.29,11.09,13.64,16.7,20.42a8.09,8.09,0,0,1,1.24,1.4c.51,1.08.86,2.24,1.27,3.37-1.08-.4-2.41-.52-3.2-1.24-4.94-4.53-10-9-14.58-13.85A142.89,142.89,0,0,1,452.84,243q-2.44-51.09,28.31-91.73a138.62,138.62,0,0,1,55.51-44A141.1,141.1,0,0,1,569,97.31a150.39,150.39,0,0,1,47.66-.74,139,139,0,0,1,61.66,24.78,164.41,164.41,0,0,1,45.83,49.37,11.35,11.35,0,0,1,1.07,2,6.71,6.71,0,0,1,.19,1.75,4.6,4.6,0,0,1-1.68-.13c-3.51-1.85-6.56-3.91-8.8-7.62a122.84,122.84,0,0,0-46.56-45.17,132,132,0,0,0-33.57-13.05,136,136,0,0,0-49-2.45A145.35,145.35,0,0,0,531,124.49c-23.74,13.79-41.94,32.85-53.92,57.67a116.31,116.31,0,0,0-10.84,37.05C465.49,225.62,465,232.08,464.37,238.51Z"/><path class="cls-2" d="M1849.4,305.8c-11.58.15-16.42-8.1-11.09-18.4a24.72,24.72,0,0,0,2.11-7.78c1.52-10.58,2.86-21.17,4.25-31.76.57-4.31,1.22-8.61,1.66-12.94q1.74-17.07,3.29-34.16c.55-6,5.83-12.11,12.07-13a38.89,38.89,0,0,1,9-.11c3.56.31,7,4.09,7.3,7.91.18,2.22-.11,4.48-.15,6.71,0,1.05.08,2.1.13,3.14a16.69,16.69,0,0,0,3.27-1.27c4.87-3.19,9.47-6.85,14.55-9.64,5.69-3.12,11.21-6.92,18.12-7.19,7.92-.32,13.14,2.11,15.2,13.2,1.29,6.93.46,13.68-1.17,20.25-1.54,6.17-10.06,9.94-16.26,8.13-5.49-1.6-9.38-4.48-9.57-10.76,0-1.76-1-1.76-2.18-.86-8.51,6.41-17.05,12.78-25.48,19.3a6.41,6.41,0,0,0-2.23,3.74c-1.2,8-2.16,16-3.2,24-.51,4-.92,7.91-1.53,11.84a42.83,42.83,0,0,0,.33,14c1.32,7.81-4.89,14.65-13.52,15.59A46.32,46.32,0,0,1,1849.4,305.8Z"/><path class="cls-4" d="M1443.05,306.58c-9.24.25-15.38-7.51-11.89-16.35,3.35-8.45,3.71-17.23,5-25.92,2.4-16.4,4.45-32.85,6.56-49.3a15.78,15.78,0,0,0-.28-5.48c-3-12.55,9.06-24.14,21.34-20.53,6.64,2,11.09,10.85,7.74,17.38-2.7,5.26-3,10.7-3.64,16.16-2.53,20.29-4.88,40.61-7.27,60.92a8,8,0,0,0,.09,2.93c2.67,9.9-3.63,19-15.76,20.19C1444.3,306.64,1443.67,306.58,1443.05,306.58Z"/><path class="cls-4" d="M1447.4,165.93c.68-6.12,1.84-13.13,5.63-19.35a17.24,17.24,0,0,1,20.16-7.48c4.71,1.48,7.91,5.07,7.81,10.27-.18,9.81-2.51,19-9.89,26.21a14.89,14.89,0,0,1-12.64,4.32C1451.32,179.06,1447.13,174.14,1447.4,165.93Z"/><path class="cls-2" d="M603.05,210c5.08,1.9,10,4.08,11.71,9.9a19.45,19.45,0,0,1-7.14,21.66c-4.33,3.23-9,6-13.58,8.91a10.58,10.58,0,0,0-1.49,0c-8.23,1.15-13.94-6.06-12.42-13.56a49.72,49.72,0,0,0,.38-7.45v0c.52-1.12,1-2.26,1.55-3.38C586.34,217,592.07,209.69,603.05,210Z"/><path class="cls-5" d="M758.89,210c11.42-8.42,21.61-6.76,32.64.28,1,.67,1.91,3.28,1.44,4.37-3.28,7.59-6.54,15.26-12.93,21-6.63.9-13.25,1.84-19.89,2.67a7,7,0,0,1-3.25-.48,9.8,9.8,0,0,0-8.58.27c-2.71,1.39-4.74.22-4.23-2.79.7-4.06,1.67-8.4,3.81-11.81C751,218.57,755.17,214.43,758.89,210Zm-9,23.2,1,1.12c.77-.29,1.53-.63,2.32-.84,4.88-1.32,9.72-3.45,14.65-3.71,6.48-.35,10.43-3.23,13.13-8.7s2.76-5.66-3-7.07c-1.69-.42-3.41-.67-5.13-1a8.33,8.33,0,0,0-8.09,2.79C759.7,221.53,754.79,227.37,749.84,233.17Z"/><path class="cls-6" d="M580.51,229.48a49.72,49.72,0,0,1-.38,7.45c-1.52,7.5,4.19,14.71,12.42,13.56a10.58,10.58,0,0,1,1.49,0c-2.22,2.63-5.09,1.86-7.47.81-3.77-1.68-6.1-4.57-8-8.62-1.77-3.74-.2-7.31-1.59-11.69a29.91,29.91,0,0,0-4,11.69,27.67,27.67,0,0,1-1.7,5.4c-.27.81-1.1,1.82-.85,2.35,1.83,3.9-1.77,5.26-3.32,7.56,2.2-8,3.93-16.11,6.75-23.86a71.2,71.2,0,0,1,8.36-15.68c7.61-11.06,18.27-16.8,31.9-16.57a26.71,26.71,0,0,0,4.06-.46c5-.68,9.9-.53,14.3,2.44-2.13,1.42-4.18,1.25-6.41,0a7.87,7.87,0,0,0-4.08-1c-5.59.36-11.18.88-16.75,1.52a13.31,13.31,0,0,0-5.77,2.22,16.49,16.49,0,0,1,3.76.74c.26.11-.11,1.73-.18,2.66-11-.33-16.71,6.93-21,16-.53,1.12-1,2.26-1.55,3.38-.09-1.2-.19-2.39-.28-3.59l-1.37.44Z"/><path class="cls-6" d="M758.89,210c-3.72,4.46-7.94,8.6-11,13.47-2.14,3.41-3.11,7.75-3.81,11.81-.51,3,1.52,4.18,4.23,2.79a9.8,9.8,0,0,1,8.58-.27,7,7,0,0,0,3.25.48c6.64-.83,13.26-1.77,19.89-2.67.06,2-1,2.92-3,2.9-2.6,0-5.21-.12-7.8.07-2.18.16-4.33.92-6.5,1a24.32,24.32,0,0,1-7.19-.61c-4.09-1.15-7.78.47-8.57,4.21l-2.68,0c-1.49-1.44-2.88-1.79-4.27.21a3.09,3.09,0,0,1-1.79,1.11c-5.14,1-10.29,2-15.47,2.88-1.12.19-2.36-.37-3.54-.59l8.26-2.39c2-.16,4-.35,5.93-.48,5.14-.34,5.14-.33,6.07-5.32l0,0c2.75,1.75,3.12.4,3-2.13-.18-3.27-.11-6.55-.15-9.83L745.64,216l2.88,3-.61.84.62-.83a79.81,79.81,0,0,1,5.74-6.55C755.5,211.3,757.33,210.78,758.89,210ZM745,240.79l-.47-.16.11.29Z"/><path class="cls-5" d="M671.26,269.19l-4-9.1-1.11.33q1.45,8.37,2.93,16.74c-1.32-4-2.76-7.87-3.93-11.87s-2.05-7.93-3-11.93a5.38,5.38,0,0,1,.34-2c.54.2,1.33.24,1.6.64C667.7,257.21,671,262.59,671.26,269.19Z"/><path class="cls-5" d="M744.34,243.11l2.68,0,8.86,8.08c-1.19-.82-2.37-1.64-3.57-2.45-1.91-1.29-2.28-.2-2.25,1.47Q747.2,246.69,744.34,243.11Z"/><path class="cls-5" d="M657.33,240l2.59,0a40,40,0,0,1,1.31,4.85,9.21,9.21,0,0,1-.46,2.88,12.44,12.44,0,0,1-1.89-2.53A54.27,54.27,0,0,1,657.33,240Z"/><path class="cls-6" d="M577.54,347.93l7.74,2c0,.31,0,.63,0,.94h-13Z"/><path class="cls-5" d="M659.84,238.48l-1.32-5.62Z"/><path class="cls-1" d="M744.34,243.11q2.86,3.57,5.72,7.13c7.2,16.08,13.39,32.36,12.08,50.52-1.26,17.38-11.86,31.56-28.39,36.74-12.2,3.82-23.76,1.93-34.7-4.66-8.7-5.23-15.69-12-18.66-21.85-4.1-13.55-4.15-27,3.78-39.49l1.35,0,0,0a3.58,3.58,0,0,1-.1,1.1c-2.57,5.7-1.61,11.75-1.15,17.57.23,2.86,2.75,5.55,4.23,8.31,3.46,4.07,10.34,3.71,14.44,1.32a33.83,33.83,0,0,0,13.73-15.17c3.89-8.24,2.75-19.78-7.17-23.61-.42-.44-.89-1.29-1.23-1.24-3.77.54-7.79-3.51-11.4.64-.42.47-1.66.21-2.52.3,2.66-2.27,5-5.09,8.06-6.68,5.4-2.83,11.2-4.91,16.84-7.31,1.18.22,2.42.78,3.54.59,5.18-.83,10.33-1.85,15.47-2.88a3.09,3.09,0,0,0,1.79-1.11C741.46,241.32,742.85,241.67,744.34,243.11Z"/><path class="cls-6" d="M621.1,172.66c-1-3.88-3.9-5.28-7.19-6.79-5.6-2.57-8.88-7.23-9.81-13.51-.81-5.48.27-10.62,2.18-15.67.23-.62,1-1.05,1.47-1.56.46.49.94,1,1.37,1.47,2,2.35,3.77,4.91,6,7,3.78,3.69,6,7.66,4.94,13.24a7.54,7.54,0,0,0,1.09,5.64C623.92,165.86,623.2,168.93,621.1,172.66Z"/><path class="cls-6" d="M698.69,343.25l-42.16,2.23-.23-1c1.23-.67,2.46-1.33,3.67-2a37.45,37.45,0,0,0,14.85-15.74c1.76-3.47,2-3.52,4.14-.37,4.94,7.42,11.12,13.25,20,15.89Z"/><path class="cls-6" d="M738.17,231c-.58.09-1.48.46-1.69.22-3.9-4.43-7.57-9-5.81-15.52a22.64,22.64,0,0,1,1.68-3.65,17.46,17.46,0,0,1,3.38,1.85c3.9,3.38,4,8,3.8,12.64C739.08,228,738.62,229.5,738.17,231Z"/><path class="cls-6" d="M639.93,172.51c-.36,0-1.36,0-2.36-.15-1.85-.18-2.21-1.22-1.7-2.89a9.77,9.77,0,0,1,13.64-6.26,2.21,2.21,0,0,1,.91,1.9C649.18,170.7,646.61,172.57,639.93,172.51Z"/><path class="cls-6" d="M685.52,271.46l-1.35,0,8.88-10.43.66.75.67-1.05v-.06c.86-.09,2.1.17,2.52-.3,3.61-4.15,7.63-.1,11.4-.64.34,0,.81.8,1.23,1.24-4.16.28-8.79-.52-12.38,1.06-8.93,3.92-12.24,12-11.86,21.27.2,5.08,2.11,10.09,3.24,15.13-1.48-2.76-4-5.45-4.23-8.31-.46-5.82-1.42-11.87,1.15-17.57a3.58,3.58,0,0,0,.1-1.1l.61-.86Z"/><path class="cls-5" d="M738.17,231c.45-1.48.91-3,1.36-4.46,1,2.09,1.91.9,2.87,0,0,3.28,0,6.56.15,9.83.14,2.53-.23,3.88-3,2.13a59.54,59.54,0,0,0,1.4-6C741.32,230,740,229.9,738.17,231Z"/><path class="cls-5" d="M739.53,238.53c-.93,5-.93,5-6.07,5.32-2,.13-4,.32-5.93.48,1.8-.45,3.58-1.24,5.38-1.27,2.76-.05,5.19-.06,5.54-3.64C738.48,239.09,739.16,238.82,739.53,238.53Z"/><path class="cls-1" d="M694.38,260.77l-.67,1.05-.66-.75Z"/><path class="cls-7" d="M1785.76,248.93c-1.7,2.79-3,5.88-5.15,8.31-10.58,12.17-23.91,20.41-38.83,26.13a73.43,73.43,0,0,1-12.87,3.54c-1.67.31-4.42-.3-5.23-1.48s-.61-4,.22-5.54a39.34,39.34,0,0,1,6-8c9.9-10.43,22.33-16.79,35.72-21.39,5.39-1.85,11-3.15,16.45-4.7,2.41-.69,3.35.22,2.73,2.81Z"/><path class="cls-6" d="M2084.06,234.26c5.63-9.49,12.79-16.82,23-20.31,5-1.73,10.29-3.15,15.75-1.48,3.37,1,5.43,3.43,5.7,6.54.31,3.68-2.14,5.22-5,6-7.28,2.1-14.63,4-22,5.83-4,1-8,1.83-12,2.64C2087.73,233.88,2085.89,234,2084.06,234.26Z"/><path class="cls-8" d="M1149.14,226.14a46.61,46.61,0,0,1-11.93,31.1,165.27,165.27,0,0,1-20.67,19.34c-6.63,5.3-15,6.07-23.2,5.2s-12.14-5.51-11.5-15.46c1.66-25.86,14.74-44.47,38.19-55.48a36.18,36.18,0,0,1,12.65-2.86c9.66-.68,15.25,4.4,16.25,14.05C1149.07,223.39,1149.08,224.77,1149.14,226.14Z"/><path class="cls-6" d="M749.84,233.17c4.95-5.8,9.86-11.64,14.87-17.38A8.33,8.33,0,0,1,772.8,213c1.72.3,3.44.55,5.13,1,5.78,1.41,5.77,1.5,3,7.07s-6.65,8.35-13.13,8.7c-4.93.26-9.77,2.39-14.65,3.71-.79.21-1.55.55-2.32.84Z"/><path class="cls-1" d="M580.51,229.48l-1.65-3.19,1.37-.44c.09,1.2.19,2.39.28,3.59Z"/><path class="cls-1" d="M748.53,219l-.62.83.61-.84Z"/><path class="cls-1" d="M745,240.79l-.36.13-.11-.29Z"/><path class="cls-2" d="M688.52,298.47c-1.13-5-3-10.05-3.24-15.13-.38-9.23,2.93-17.35,11.86-21.27,3.59-1.58,8.22-.78,12.38-1.06,9.92,3.83,11.06,15.37,7.17,23.61A33.83,33.83,0,0,1,703,299.79C698.86,302.18,692,302.54,688.52,298.47Z"/><path class="cls-1" d="M685.52,271.46l.63-.83-.61.86Z"/></g></g></svg>